<svg width="162" height="163" viewBox="0 0 162 163" fill="none" xmlns="http://www.w3.org/2000/svg">
<g clip-path="url(#clip0_797_10783)">
<path d="M149.673 66.7126C153.331 55.6133 152.071 43.4546 146.222 33.3588C137.424 17.8739 119.739 9.90732 102.467 13.6563C94.7838 4.90528 83.7445 -0.0712886 72.1711 2.36056e-05C54.5163 -0.0407262 38.8517 11.4507 33.4202 28.4332C22.0786 30.7814 12.2888 37.9585 6.56009 48.1306C-2.30259 63.5748 -0.282159 83.043 11.5583 96.2867C7.90032 107.386 9.15994 119.545 15.0096 129.64C23.8068 145.125 41.4918 153.092 58.7637 149.343C66.4424 158.094 77.4867 163.071 89.0601 162.994C106.725 163.04 122.395 151.538 127.826 134.541C139.168 132.192 148.957 125.015 154.686 114.843C163.539 99.399 161.513 79.9461 149.678 66.7024L149.673 66.7126ZM89.0702 152.343C82.0012 152.353 75.1539 149.852 69.7275 145.273C69.9743 145.141 70.4026 144.901 70.6797 144.728L102.785 125.983C104.427 125.041 105.435 123.273 105.425 121.363V75.6062L118.994 83.5269C119.14 83.5983 119.236 83.7409 119.256 83.9039V121.796C119.236 138.646 105.737 152.308 89.0702 152.343ZM24.1544 124.312C20.6124 118.129 19.3377 110.88 20.5519 103.846C20.7887 103.988 21.2069 104.248 21.5042 104.421L53.6094 123.166C55.2368 124.129 57.2522 124.129 58.8847 123.166L98.079 100.285V116.127C98.089 116.29 98.0134 116.448 97.8875 116.55L65.4347 135.493C50.9793 143.908 32.5183 138.906 24.1595 124.312H24.1544ZM15.7049 53.4638C19.2319 47.2698 24.7994 42.5326 31.43 40.0724C31.43 40.3525 31.4149 40.8466 31.4149 41.193V78.6879C31.4048 80.593 32.4125 82.3605 34.05 83.3028L73.2443 106.179L59.6757 114.099C59.5397 114.191 59.3683 114.206 59.2172 114.14L26.7593 95.1814C12.3342 86.736 7.3864 68.0777 15.6999 53.4689L15.7049 53.4638ZM127.186 79.6914L87.9919 56.8104L101.561 48.8947C101.697 48.803 101.868 48.7877 102.019 48.854L134.477 67.7975C148.927 76.2378 153.88 94.9267 145.531 109.536C141.999 115.719 136.437 120.456 129.811 122.922V84.3063C129.826 82.4012 128.824 80.6388 127.191 79.6914H127.186ZM140.689 59.1433C140.453 58.9956 140.034 58.7409 139.737 58.5677L107.632 39.8228C106.004 38.8601 103.989 38.8601 102.357 39.8228L63.1623 62.7038V46.8623C63.1522 46.6993 63.2278 46.5414 63.3538 46.4395L95.8066 27.5112C110.262 19.0811 128.743 24.0984 137.077 38.7174C140.599 44.891 141.873 52.119 140.679 59.1433H140.689ZM55.786 87.3778L42.2123 79.4571C42.0662 79.3858 41.9705 79.2431 41.9503 79.0801V41.1879C41.9604 24.3175 55.4988 10.6459 72.1862 10.6561C79.2451 10.6561 86.0773 13.1622 91.5037 17.7262C91.2569 17.8586 90.8336 18.098 90.5515 18.2712L58.4463 37.0161C56.8038 37.9585 55.7961 39.7209 55.8061 41.6311L55.786 87.3676V87.3778ZM63.1573 71.3122L80.6156 61.1196L98.0739 71.3071V91.6871L80.6156 101.875L63.1573 91.6871V71.3122Z" fill="#F7F8FB"/>
</g>
<defs>
<clipPath id="clip0_797_10783">
<rect width="162" height="163" fill="white"/>
</clipPath>
</defs>
</svg>
